<svg width="206" height="26" viewBox="0 0 206 26" fill="none" xmlns="http://www.w3.org/2000/svg">
<path d="M12.472 0.407999C14.176 0.407999 15.772 0.719999 17.26 1.344C18.748 1.968 20.056 2.844 21.184 3.972C22.312 5.1 23.188 6.408 23.812 7.896C24.46 9.384 24.784 10.992 24.784 12.72C24.784 14.424 24.46 16.032 23.812 17.544C23.188 19.032 22.312 20.328 21.184 21.432C20.056 22.56 18.748 23.436 17.26 24.06C15.772 24.708 14.176 25.032 12.472 25.032C10.72 25.032 9.1 24.72 7.612 24.096C6.124 23.472 4.816 22.596 3.688 21.468C2.584 20.364 1.72 19.068 1.096 17.58C0.472 16.068 0.16 14.448 0.16 12.72C0.16 10.992 0.472 9.384 1.096 7.896C1.72 6.408 2.596 5.1 3.724 3.972C4.852 2.844 6.16 1.968 7.648 1.344C9.136 0.719999 10.744 0.407999 12.472 0.407999ZM12.472 2.1C10.984 2.1 9.592 2.376 8.296 2.928C7.024 3.456 5.896 4.2 4.912 5.16C3.952 6.12 3.196 7.248 2.644 8.544C2.116 9.84 1.852 11.232 1.852 12.72C1.852 14.736 2.32 16.548 3.256 18.156C4.192 19.74 5.452 20.988 7.036 21.9C8.644 22.836 10.456 23.304 12.472 23.304C13.96 23.304 15.352 23.028 16.648 22.476C17.944 21.948 19.072 21.204 20.032 20.244C20.992 19.284 21.736 18.168 22.264 16.896C22.816 15.6 23.092 14.208 23.092 12.72C23.092 11.232 22.816 9.84 22.264 8.544C21.736 7.248 20.992 6.12 20.032 5.16C19.072 4.2 17.944 3.456 16.648 2.928C15.352 2.376 13.96 2.1 12.472 2.1ZM12.832 4.692C13.912 4.692 14.824 4.824 15.568 5.088C16.336 5.328 17.14 5.7 17.98 6.204C17.86 6.852 17.788 7.512 17.764 8.184C17.74 8.832 17.728 9.48 17.728 10.128C17.536 10.224 17.272 10.296 16.936 10.344C16.6 10.392 16.3 10.416 16.036 10.416C15.964 9.744 15.808 9.108 15.568 8.508C15.352 7.908 14.98 7.416 14.452 7.032C13.924 6.648 13.18 6.456 12.22 6.456C11.38 6.456 10.708 6.72 10.204 7.248C9.7 7.752 9.34 8.448 9.124 9.336C8.908 10.224 8.8 11.22 8.8 12.324C8.8 13.428 8.944 14.472 9.232 15.456C9.52 16.44 9.988 17.244 10.636 17.868C11.308 18.492 12.172 18.804 13.228 18.804C13.9 18.804 14.596 18.684 15.316 18.444C16.06 18.18 16.744 17.712 17.368 17.04C17.704 17.304 17.932 17.652 18.052 18.084C17.428 18.948 16.636 19.62 15.676 20.1C14.74 20.58 13.576 20.82 12.184 20.82C11.008 20.82 9.88 20.52 8.8 19.92C7.72 19.32 6.832 18.432 6.136 17.256C5.464 16.056 5.128 14.568 5.128 12.792C5.128 11.16 5.452 9.744 6.1 8.544C6.748 7.32 7.648 6.372 8.8 5.7C9.952 5.028 11.296 4.692 12.832 4.692ZM40.5006 8.856C41.6846 8.856 42.6606 9.096 43.4286 9.576C44.1966 10.04 44.5806 10.84 44.5806 11.976C44.5806 12.488 44.4846 12.944 44.2926 13.344C44.1166 13.728 43.8206 14.136 43.4046 14.568C43.0046 14.984 42.4766 15.48 41.8206 16.056C41.3886 16.424 40.9486 16.808 40.5006 17.208C40.0686 17.592 39.5726 18.048 39.0126 18.576H42.2046C42.6686 18.576 43.0206 18.552 43.2606 18.504C43.5006 18.44 43.6686 18.312 43.7646 18.12C43.8606 17.912 43.9246 17.592 43.9566 17.16C44.1966 17.16 44.4286 17.176 44.6526 17.208C44.8766 17.224 45.0686 17.264 45.2286 17.328C45.2286 17.952 45.2446 18.512 45.2766 19.008C45.3246 19.504 45.3966 19.976 45.4926 20.424C45.4126 20.6 45.3006 20.752 45.1566 20.88C45.0126 20.992 44.8286 21.048 44.6046 21.048C43.8846 21.032 43.1166 21.016 42.3006 21C41.4846 21 40.7166 21 39.9966 21C39.2766 21 38.5326 21 37.7646 21C36.9966 21.016 36.3806 21.032 35.9166 21.048C35.7726 20.872 35.6766 20.696 35.6286 20.52C35.5966 20.328 35.5806 20.104 35.5806 19.848C36.2206 19.24 36.8766 18.632 37.5486 18.024C38.2366 17.416 38.9006 16.824 39.5406 16.248C40.1806 15.704 40.6686 15.216 41.0046 14.784C41.3566 14.352 41.5966 13.944 41.7246 13.56C41.8526 13.176 41.9166 12.784 41.9166 12.384C41.9166 11.648 41.7486 11.08 41.4126 10.68C41.0766 10.28 40.5806 10.08 39.9246 10.08C39.3166 10.08 38.8446 10.304 38.5086 10.752C38.1726 11.2 37.9166 12.064 37.7406 13.344C37.4846 13.344 37.2206 13.328 36.9486 13.296C36.6926 13.264 36.4686 13.216 36.2766 13.152C36.3246 12.736 36.3486 12.216 36.3486 11.592C36.3486 10.968 36.3086 10.44 36.2286 10.008C36.7406 9.672 37.3486 9.4 38.0526 9.192C38.7566 8.968 39.5726 8.856 40.5006 8.856ZM54.0706 8.856C55.1586 8.856 56.1746 9.088 57.1186 9.552C58.0786 10.016 58.8546 10.696 59.4466 11.592C60.0386 12.488 60.3346 13.584 60.3346 14.88C60.3346 16.176 60.0466 17.304 59.4706 18.264C58.8946 19.208 58.1266 19.936 57.1666 20.448C56.2226 20.96 55.1906 21.216 54.0706 21.216C52.9346 21.216 51.8786 20.96 50.9026 20.448C49.9266 19.936 49.1346 19.208 48.5266 18.264C47.9346 17.304 47.6386 16.176 47.6386 14.88C47.6386 13.904 47.8226 13.048 48.1906 12.312C48.5586 11.56 49.0466 10.928 49.6546 10.416C50.2786 9.904 50.9666 9.52 51.7186 9.264C52.4866 8.992 53.2706 8.856 54.0706 8.856ZM53.4226 10.176C52.7186 10.176 52.1266 10.376 51.6466 10.776C51.1666 11.16 50.7986 11.68 50.5426 12.336C50.3026 12.976 50.1826 13.696 50.1826 14.496C50.1826 15.072 50.2866 15.672 50.4946 16.296C50.7026 16.904 50.9986 17.472 51.3826 18C51.7666 18.528 52.2306 18.952 52.7746 19.272C53.3346 19.592 53.9586 19.752 54.6466 19.752C55.3666 19.752 55.9506 19.552 56.3986 19.152C56.8626 18.752 57.1986 18.224 57.4066 17.568C57.6146 16.912 57.7186 16.2 57.7186 15.432C57.7186 14.904 57.6226 14.336 57.4306 13.728C57.2386 13.104 56.9586 12.528 56.5906 12C56.2226 11.456 55.7746 11.016 55.2466 10.68C54.7186 10.344 54.1106 10.176 53.4226 10.176ZM67.6178 8.856C68.8018 8.856 69.7778 9.096 70.5458 9.576C71.3138 10.04 71.6978 10.84 71.6978 11.976C71.6978 12.488 71.6018 12.944 71.4098 13.344C71.2338 13.728 70.9378 14.136 70.5218 14.568C70.1218 14.984 69.5938 15.48 68.9378 16.056C68.5058 16.424 68.0658 16.808 67.6178 17.208C67.1858 17.592 66.6898 18.048 66.1298 18.576H69.3218C69.7858 18.576 70.1378 18.552 70.3778 18.504C70.6178 18.44 70.7858 18.312 70.8818 18.12C70.9778 17.912 71.0418 17.592 71.0738 17.16C71.3138 17.16 71.5458 17.176 71.7698 17.208C71.9938 17.224 72.1858 17.264 72.3458 17.328C72.3458 17.952 72.3618 18.512 72.3938 19.008C72.4418 19.504 72.5138 19.976 72.6098 20.424C72.5298 20.6 72.4178 20.752 72.2738 20.88C72.1298 20.992 71.9458 21.048 71.7218 21.048C71.0018 21.032 70.2338 21.016 69.4178 21C68.6018 21 67.8338 21 67.1138 21C66.3938 21 65.6498 21 64.8818 21C64.1138 21.016 63.4978 21.032 63.0338 21.048C62.8898 20.872 62.7938 20.696 62.7458 20.52C62.7138 20.328 62.6978 20.104 62.6978 19.848C63.3378 19.24 63.9938 18.632 64.6658 18.024C65.3538 17.416 66.0178 16.824 66.6578 16.248C67.2978 15.704 67.7858 15.216 68.1218 14.784C68.4738 14.352 68.7138 13.944 68.8418 13.56C68.9698 13.176 69.0338 12.784 69.0338 12.384C69.0338 11.648 68.8658 11.08 68.5298 10.68C68.1938 10.28 67.6978 10.08 67.0418 10.08C66.4338 10.08 65.9618 10.304 65.6258 10.752C65.2898 11.2 65.0338 12.064 64.8578 13.344C64.6018 13.344 64.3378 13.328 64.0658 13.296C63.8098 13.264 63.5858 13.216 63.3938 13.152C63.4418 12.736 63.4658 12.216 63.4658 11.592C63.4658 10.968 63.4258 10.44 63.3458 10.008C63.8578 9.672 64.4658 9.4 65.1698 9.192C65.8738 8.968 66.6898 8.856 67.6178 8.856ZM80.0073 17.712C80.0073 18.576 80.1193 19.152 80.3433 19.44C80.5673 19.728 81.0073 19.888 81.6633 19.92C81.7113 20.096 81.7433 20.288 81.7593 20.496C81.7753 20.688 81.7833 20.88 81.7833 21.072C81.4793 21.056 81.1273 21.04 80.7273 21.024C80.3273 21.024 79.9433 21.016 79.5753 21C79.2233 21 78.9433 21 78.7353 21C78.3033 21 77.7913 21 77.1992 21C76.6233 21.016 76.1193 21.04 75.6873 21.072C75.6873 20.88 75.6953 20.688 75.7113 20.496C75.7273 20.288 75.7593 20.096 75.8073 19.92C76.4313 19.872 76.8633 19.704 77.1033 19.416C77.3433 19.128 77.4633 18.568 77.4633 17.736V12.264C77.4633 11.432 77.3513 10.872 77.1273 10.584C76.9193 10.296 76.4793 10.128 75.8073 10.08C75.7273 9.744 75.6873 9.36 75.6873 8.928C75.9433 8.944 76.2553 8.96 76.6233 8.976C77.0073 8.976 77.3913 8.984 77.7753 9C78.1593 9 78.4793 9 78.7353 9C79.2473 9 79.7833 8.992 80.3433 8.976C80.9193 8.96 81.3993 8.944 81.7833 8.928C81.7833 9.36 81.7433 9.744 81.6633 10.08C81.0233 10.128 80.5833 10.296 80.3433 10.584C80.1193 10.872 80.0073 11.432 80.0073 12.264V17.712ZM91.2104 12.84C90.7304 12.84 90.3544 12.704 90.0824 12.432C89.8104 12.16 89.6744 11.816 89.6744 11.4C89.6744 10.968 89.8264 10.608 90.1304 10.32C90.4344 10.016 90.8264 9.864 91.3064 9.864C91.7704 9.864 92.1304 10.016 92.3864 10.32C92.6584 10.624 92.7944 10.944 92.7944 11.28C92.7944 11.792 92.6424 12.184 92.3384 12.456C92.0344 12.712 91.6584 12.84 91.2104 12.84ZM110.871 21.216C110.567 20.704 110.319 20.272 110.127 19.92C109.935 19.552 109.751 19.208 109.575 18.888C109.415 18.552 109.239 18.192 109.047 17.808C108.775 17.28 108.511 16.8 108.255 16.368C107.999 15.936 107.711 15.52 107.391 15.12C107.087 14.704 106.711 14.264 106.263 13.8C105.703 13.832 105.183 13.832 104.703 13.8V17.688C104.703 18.568 104.807 19.152 105.015 19.44C105.239 19.712 105.647 19.872 106.239 19.92C106.287 20.064 106.319 20.248 106.335 20.472C106.351 20.68 106.359 20.88 106.359 21.072C105.847 21.04 105.295 21.016 104.703 21C104.111 21 103.639 21 103.287 21C102.839 21 102.319 21 101.727 21C101.151 21.016 100.671 21.04 100.287 21.072C100.287 20.864 100.295 20.664 100.311 20.472C100.327 20.264 100.359 20.08 100.407 19.92C101.063 19.872 101.503 19.712 101.727 19.44C101.951 19.152 102.063 18.584 102.063 17.736V8.04C102.063 7.192 101.951 6.624 101.727 6.336C101.503 6.032 101.063 5.872 100.407 5.856C100.359 5.696 100.327 5.512 100.311 5.304C100.295 5.096 100.287 4.904 100.287 4.728C100.559 4.744 100.983 4.76 101.559 4.776C102.151 4.776 102.751 4.776 103.359 4.776C103.983 4.776 104.647 4.768 105.351 4.752C106.071 4.736 106.791 4.728 107.511 4.728C108.743 4.728 109.751 4.912 110.535 5.28C111.335 5.632 111.919 6.12 112.287 6.744C112.671 7.368 112.863 8.064 112.863 8.832C112.863 9.952 112.503 10.896 111.783 11.664C111.079 12.432 110.127 12.968 108.927 13.272C109.327 13.656 109.671 14.04 109.959 14.424C110.247 14.792 110.543 15.224 110.847 15.72C111.167 16.216 111.551 16.848 111.999 17.616C112.303 18.16 112.583 18.592 112.839 18.912C113.095 19.216 113.383 19.44 113.703 19.584C114.039 19.728 114.479 19.816 115.023 19.848C115.023 20.056 115.015 20.256 114.999 20.448C114.983 20.624 114.951 20.808 114.903 21C114.199 21 113.495 21.008 112.791 21.024C112.087 21.056 111.447 21.12 110.871 21.216ZM106.359 5.904C106.039 5.904 105.751 5.92 105.495 5.952C105.239 5.968 104.975 6.008 104.703 6.072V12.552C105.039 12.6 105.375 12.624 105.711 12.624C106.527 12.624 107.263 12.504 107.919 12.264C108.591 12.008 109.119 11.624 109.503 11.112C109.903 10.6 110.103 9.936 110.103 9.12C110.103 8.16 109.815 7.384 109.239 6.792C108.663 6.2 107.703 5.904 106.359 5.904ZM121.621 21.216C120.469 21.216 119.477 20.984 118.645 20.52C117.813 20.056 117.165 19.4 116.701 18.552C116.253 17.688 116.029 16.68 116.029 15.528C116.029 14.408 116.269 13.416 116.749 12.552C117.245 11.688 117.909 11.016 118.741 10.536C119.589 10.04 120.557 9.792 121.645 9.792C122.845 9.792 123.861 10.032 124.693 10.512C125.525 10.992 126.157 11.656 126.589 12.504C127.021 13.352 127.237 14.344 127.237 15.48C127.237 16.6 127.005 17.592 126.541 18.456C126.077 19.32 125.421 20 124.573 20.496C123.741 20.976 122.757 21.216 121.621 21.216ZM121.861 19.944C122.757 19.944 123.421 19.56 123.853 18.792C124.285 18.024 124.501 17.04 124.501 15.84C124.501 14.848 124.357 13.992 124.069 13.272C123.797 12.552 123.421 12 122.941 11.616C122.477 11.232 121.965 11.04 121.405 11.04C120.525 11.04 119.869 11.408 119.437 12.144C119.005 12.88 118.789 13.824 118.789 14.976C118.789 16.528 119.061 17.744 119.605 18.624C120.165 19.504 120.917 19.944 121.861 19.944ZM138.276 19.272C137.844 19.896 137.3 20.376 136.644 20.712C135.988 21.048 135.204 21.216 134.292 21.216C133.396 21.216 132.548 21.008 131.748 20.592C130.964 20.176 130.324 19.552 129.828 18.72C129.332 17.872 129.084 16.816 129.084 15.552C129.084 14.592 129.276 13.672 129.66 12.792C130.06 11.912 130.644 11.192 131.412 10.632C132.18 10.072 133.124 9.792 134.244 9.792C135.796 9.792 137.044 10.144 137.988 10.848C137.908 11.312 137.852 11.776 137.82 12.24C137.804 12.688 137.796 13.16 137.796 13.656C137.636 13.736 137.428 13.792 137.172 13.824C136.916 13.856 136.684 13.872 136.476 13.872C136.396 12.96 136.14 12.256 135.708 11.76C135.292 11.264 134.756 11.016 134.1 11.016C133.348 11.016 132.756 11.384 132.324 12.12C131.892 12.856 131.676 13.88 131.676 15.192C131.676 15.96 131.804 16.688 132.06 17.376C132.316 18.064 132.692 18.632 133.188 19.08C133.684 19.512 134.308 19.728 135.06 19.728C136.116 19.728 136.988 19.304 137.676 18.456C137.804 18.536 137.924 18.648 138.036 18.792C138.148 18.936 138.228 19.096 138.276 19.272ZM139.347 21.072C139.347 20.88 139.355 20.68 139.371 20.472C139.387 20.264 139.419 20.08 139.467 19.92C140.107 19.904 140.539 19.752 140.763 19.464C141.003 19.176 141.123 18.632 141.123 17.832V7.344C141.123 6.768 141.019 6.344 140.811 6.072C140.619 5.784 140.123 5.64 139.323 5.64C139.323 5.432 139.339 5.248 139.371 5.088C139.403 4.912 139.459 4.752 139.539 4.608C139.875 4.608 140.275 4.568 140.739 4.488C141.219 4.408 141.675 4.304 142.107 4.176C142.539 4.048 142.859 3.92 143.067 3.792C143.227 3.856 143.363 3.968 143.475 4.128C143.587 4.288 143.643 4.528 143.643 4.848V14.832L145.395 13.248C145.923 12.784 146.291 12.416 146.499 12.144C146.707 11.856 146.811 11.632 146.811 11.472C146.811 11.216 146.587 11.088 146.139 11.088C146.027 10.736 145.971 10.36 145.971 9.96C146.451 9.976 146.923 9.992 147.387 10.008C147.867 10.008 148.307 10.008 148.707 10.008C148.995 10.008 149.339 10.008 149.739 10.008C150.139 9.992 150.547 9.976 150.963 9.96C150.963 10.152 150.947 10.352 150.915 10.56C150.899 10.752 150.851 10.928 150.771 11.088C150.275 11.12 149.803 11.24 149.355 11.448C148.923 11.656 148.411 12.024 147.819 12.552L145.755 14.424C146.283 14.968 146.819 15.552 147.363 16.176C147.907 16.8 148.531 17.544 149.235 18.408C149.523 18.776 149.779 19.064 150.003 19.272C150.227 19.464 150.459 19.6 150.699 19.68C150.939 19.76 151.235 19.816 151.587 19.848C151.587 20.088 151.571 20.304 151.539 20.496C151.523 20.672 151.491 20.84 151.443 21C150.851 21 150.283 21.016 149.739 21.048C149.195 21.08 148.659 21.136 148.131 21.216C147.811 20.736 147.403 20.176 146.907 19.536C146.427 18.896 145.899 18.24 145.323 17.568C144.747 16.88 144.187 16.248 143.643 15.672V17.832C143.643 18.616 143.739 19.16 143.931 19.464C144.139 19.752 144.499 19.904 145.011 19.92C145.059 20.096 145.091 20.296 145.107 20.52C145.123 20.728 145.131 20.912 145.131 21.072C144.731 21.04 144.275 21.016 143.763 21C143.267 21 142.771 21 142.275 21C141.779 21 141.259 21 140.715 21C140.171 21.016 139.715 21.04 139.347 21.072ZM142.995 15L142.923 15.48L143.211 15.216C143.131 15.136 143.059 15.064 142.995 15ZM157.919 21.216C156.719 21.216 155.727 20.96 154.943 20.448C154.159 19.936 153.575 19.256 153.191 18.408C152.807 17.544 152.615 16.584 152.615 15.528C152.615 14.472 152.823 13.512 153.239 12.648C153.671 11.768 154.271 11.072 155.039 10.56C155.807 10.048 156.719 9.792 157.775 9.792C158.847 9.792 159.711 10.016 160.367 10.464C161.023 10.912 161.511 11.512 161.831 12.264C162.167 13.016 162.359 13.864 162.407 14.808C162.327 15.176 162.191 15.48 161.999 15.72C161.615 15.72 161.055 15.72 160.319 15.72C159.583 15.72 158.775 15.728 157.895 15.744C157.015 15.76 156.167 15.792 155.351 15.84C155.415 16.528 155.559 17.168 155.783 17.76C156.023 18.352 156.383 18.832 156.863 19.2C157.343 19.552 157.983 19.728 158.783 19.728C159.311 19.728 159.839 19.616 160.367 19.392C160.895 19.168 161.351 18.848 161.735 18.432C161.879 18.496 162.007 18.616 162.119 18.792C162.231 18.968 162.295 19.136 162.311 19.296C161.751 19.984 161.103 20.48 160.367 20.784C159.647 21.072 158.831 21.216 157.919 21.216ZM157.607 11.04C157.239 11.04 156.887 11.152 156.551 11.376C156.215 11.584 155.935 11.944 155.711 12.456C155.487 12.952 155.359 13.648 155.327 14.544H159.695C159.695 13.488 159.511 12.64 159.143 12C158.775 11.36 158.263 11.04 157.607 11.04ZM168.464 21.216C167.472 21.216 166.728 20.96 166.232 20.448C165.752 19.936 165.512 19.096 165.512 17.928V11.736C165.272 11.656 165.016 11.592 164.744 11.544C164.488 11.496 164.168 11.456 163.784 11.424C163.784 11.2 163.8 11 163.832 10.824C163.864 10.648 163.92 10.456 164 10.248H165.512V7.152C165.896 7.072 166.272 6.936 166.64 6.744C167.024 6.552 167.344 6.344 167.6 6.12C167.776 6.2 167.896 6.312 167.96 6.456C168.024 6.6 168.056 6.928 168.056 7.44V10.248H171.128C171.128 10.648 171.056 11.048 170.912 11.448C169.76 11.48 168.808 11.584 168.056 11.76V17.448C168.056 18.296 168.168 18.904 168.392 19.272C168.632 19.624 168.968 19.8 169.4 19.8C169.976 19.8 170.496 19.624 170.96 19.272C171.168 19.528 171.288 19.832 171.32 20.184C171.032 20.472 170.616 20.72 170.072 20.928C169.544 21.12 169.008 21.216 168.464 21.216ZM177.982 21.216C176.782 21.216 175.79 20.96 175.006 20.448C174.222 19.936 173.638 19.256 173.254 18.408C172.87 17.544 172.678 16.584 172.678 15.528C172.678 14.472 172.886 13.512 173.302 12.648C173.734 11.768 174.334 11.072 175.102 10.56C175.87 10.048 176.782 9.792 177.838 9.792C178.91 9.792 179.774 10.016 180.43 10.464C181.086 10.912 181.574 11.512 181.894 12.264C182.23 13.016 182.422 13.864 182.47 14.808C182.39 15.176 182.254 15.48 182.062 15.72C181.678 15.72 181.118 15.72 180.382 15.72C179.646 15.72 178.838 15.728 177.958 15.744C177.078 15.76 176.23 15.792 175.414 15.84C175.478 16.528 175.622 17.168 175.846 17.76C176.086 18.352 176.446 18.832 176.926 19.2C177.406 19.552 178.046 19.728 178.846 19.728C179.374 19.728 179.902 19.616 180.43 19.392C180.958 19.168 181.414 18.848 181.798 18.432C181.942 18.496 182.07 18.616 182.182 18.792C182.294 18.968 182.358 19.136 182.374 19.296C181.814 19.984 181.166 20.48 180.43 20.784C179.71 21.072 178.894 21.216 177.982 21.216ZM177.67 11.04C177.302 11.04 176.95 11.152 176.614 11.376C176.278 11.584 175.998 11.944 175.774 12.456C175.55 12.952 175.422 13.648 175.39 14.544H179.758C179.758 13.488 179.574 12.64 179.206 12C178.838 11.36 178.326 11.04 177.67 11.04ZM189.63 21.216C188.43 21.216 187.438 20.96 186.654 20.448C185.87 19.936 185.286 19.256 184.902 18.408C184.518 17.544 184.326 16.584 184.326 15.528C184.326 14.472 184.534 13.512 184.95 12.648C185.382 11.768 185.982 11.072 186.75 10.56C187.518 10.048 188.43 9.792 189.486 9.792C190.558 9.792 191.422 10.016 192.078 10.464C192.734 10.912 193.222 11.512 193.542 12.264C193.878 13.016 194.07 13.864 194.118 14.808C194.038 15.176 193.902 15.48 193.71 15.72C193.326 15.72 192.766 15.72 192.03 15.72C191.294 15.72 190.486 15.728 189.606 15.744C188.726 15.76 187.878 15.792 187.062 15.84C187.126 16.528 187.27 17.168 187.494 17.76C187.734 18.352 188.094 18.832 188.574 19.2C189.054 19.552 189.694 19.728 190.494 19.728C191.022 19.728 191.55 19.616 192.078 19.392C192.606 19.168 193.062 18.848 193.446 18.432C193.59 18.496 193.718 18.616 193.83 18.792C193.942 18.968 194.006 19.136 194.022 19.296C193.462 19.984 192.814 20.48 192.078 20.784C191.358 21.072 190.542 21.216 189.63 21.216ZM189.318 11.04C188.95 11.04 188.598 11.152 188.262 11.376C187.926 11.584 187.646 11.944 187.422 12.456C187.198 12.952 187.07 13.648 187.038 14.544H191.406C191.406 13.488 191.222 12.64 190.854 12C190.486 11.36 189.974 11.04 189.318 11.04ZM200.247 17.28C200.247 17.984 200.319 18.52 200.463 18.888C200.607 19.256 200.839 19.512 201.159 19.656C201.495 19.8 201.927 19.888 202.455 19.92C202.503 20.064 202.535 20.24 202.551 20.448C202.583 20.64 202.599 20.848 202.599 21.072C202.199 21.04 201.703 21.016 201.111 21C200.535 21 199.951 21 199.359 21C198.751 21 198.111 21 197.439 21C196.783 21.016 196.279 21.04 195.927 21.072C195.927 20.816 195.935 20.6 195.951 20.424C195.967 20.232 196.007 20.064 196.071 19.92C196.695 19.872 197.119 19.712 197.343 19.44C197.583 19.152 197.703 18.584 197.703 17.736V13.416C197.703 12.808 197.599 12.368 197.391 12.096C197.199 11.824 196.711 11.672 195.927 11.64C195.927 11.432 195.943 11.248 195.975 11.088C196.007 10.912 196.063 10.752 196.143 10.608C196.751 10.576 197.399 10.48 198.087 10.32C198.775 10.16 199.303 9.984 199.671 9.792C199.831 9.856 199.967 9.976 200.079 10.152C200.191 10.312 200.247 10.568 200.247 10.92C200.247 11.352 200.207 11.752 200.127 12.12C200.063 12.488 199.991 12.864 199.911 13.248C200.007 12.96 200.095 12.712 200.175 12.504C200.255 12.28 200.343 12.088 200.439 11.928C200.791 11.384 201.207 10.928 201.687 10.56C202.183 10.176 202.751 9.984 203.391 9.984C203.999 9.984 204.551 10.176 205.047 10.56C204.983 10.992 204.935 11.496 204.903 12.072C204.871 12.648 204.863 13.152 204.879 13.584C204.703 13.648 204.471 13.704 204.183 13.752C203.895 13.8 203.607 13.824 203.319 13.824C203.287 13.104 203.167 12.624 202.959 12.384C202.767 12.128 202.511 12 202.191 12C201.919 12 201.631 12.152 201.327 12.456C201.023 12.76 200.767 13.16 200.559 13.656C200.351 14.152 200.247 14.696 200.247 15.288V17.28Z" fill="#F2F2F2"/>
</svg>
