<svg width="32" height="32" viewBox="0 0 32 32" fill="none" xmlns="http://www.w3.org/2000/svg">
<path d="M24.381 8.38095H25.9048M6.8572 0.761902H25.1429C28.5092 0.761902 31.2382 3.49083 31.2382 6.85714V25.1429C31.2382 28.5092 28.5092 31.2381 25.1429 31.2381H6.8572C3.49089 31.2381 0.761963 28.5092 0.761963 25.1429V6.85714C0.761963 3.49083 3.49089 0.761902 6.8572 0.761902ZM16.0001 22.0952C12.6338 22.0952 9.90482 19.3663 9.90482 16C9.90482 12.6337 12.6338 9.90476 16.0001 9.90476C19.3664 9.90476 22.0953 12.6337 22.0953 16C22.0953 19.3663 19.3664 22.0952 16.0001 22.0952Z" stroke="#F2F2F2"/>
</svg>
