<svg width="105" height="19" viewBox="0 0 105 19" fill="none" xmlns="http://www.w3.org/2000/svg">
<path d="M10.832 18.216C10.544 17.704 10.296 17.272 10.088 16.92C9.896 16.552 9.72 16.2 9.56 15.864C9.4 15.528 9.216 15.176 9.008 14.808C8.72 14.232 8.44 13.72 8.168 13.272C7.896 12.824 7.584 12.384 7.232 11.952C6.88 11.504 6.44 11.016 5.912 10.488L6.656 10.776C6.224 10.792 5.832 10.8 5.48 10.8C5.144 10.8 4.808 10.792 4.472 10.776L4.496 9.528C4.736 9.56 4.944 9.584 5.12 9.6C5.296 9.616 5.48 9.624 5.672 9.624C6.488 9.624 7.224 9.504 7.88 9.264C8.552 9.008 9.08 8.624 9.464 8.112C9.864 7.6 10.064 6.936 10.064 6.12C10.064 5.16 9.776 4.384 9.2 3.792C8.624 3.2 7.664 2.904 6.32 2.904C5.984 2.904 5.68 2.92 5.408 2.952C5.136 2.984 4.848 3.04 4.544 3.12L4.664 2.736V14.688C4.664 15.264 4.712 15.712 4.808 16.032C4.904 16.352 5.064 16.576 5.288 16.704C5.512 16.816 5.816 16.888 6.2 16.92C6.248 17.064 6.28 17.24 6.296 17.448C6.312 17.656 6.32 17.864 6.32 18.072C5.984 18.04 5.624 18.016 5.24 18C4.856 18 4.488 18 4.136 18C3.784 18 3.488 18 3.248 18C2.8 18 2.288 18 1.712 18C1.136 18.016 0.648 18.04 0.248 18.072C0.248 17.864 0.256 17.664 0.272 17.472C0.288 17.264 0.32 17.08 0.368 16.92C0.8 16.888 1.136 16.808 1.376 16.68C1.616 16.552 1.784 16.336 1.88 16.032C1.976 15.728 2.024 15.296 2.024 14.736V5.04C2.024 4.464 1.976 4.024 1.88 3.72C1.784 3.416 1.616 3.2 1.376 3.072C1.136 2.944 0.8 2.872 0.368 2.856C0.32 2.68 0.288 2.496 0.272 2.304C0.256 2.096 0.248 1.904 0.248 1.728C0.52 1.744 0.944 1.76 1.52 1.776C2.112 1.776 2.712 1.776 3.32 1.776C3.944 1.776 4.608 1.768 5.312 1.752C6.032 1.736 6.752 1.728 7.472 1.728C8.72 1.728 9.736 1.912 10.52 2.28C11.304 2.632 11.88 3.12 12.248 3.744C12.632 4.352 12.824 5.048 12.824 5.832C12.824 6.616 12.64 7.32 12.272 7.944C11.92 8.568 11.416 9.088 10.76 9.504C10.12 9.904 9.36 10.192 8.48 10.368L8.672 10.08C9.12 10.496 9.496 10.896 9.8 11.28C10.12 11.664 10.44 12.12 10.76 12.648C11.096 13.16 11.496 13.816 11.96 14.616C12.264 15.16 12.544 15.592 12.8 15.912C13.056 16.216 13.344 16.44 13.664 16.584C14 16.728 14.44 16.816 14.984 16.848C14.984 17.056 14.976 17.256 14.96 17.448C14.944 17.624 14.912 17.808 14.864 18C14.16 18 13.456 18.008 12.752 18.024C12.048 18.056 11.408 18.12 10.832 18.216ZM21.5821 18.216C20.4461 18.216 19.4541 17.984 18.6061 17.52C17.7741 17.04 17.1261 16.376 16.6621 15.528C16.2141 14.68 15.9901 13.68 15.9901 12.528C15.9901 11.408 16.2301 10.416 16.7101 9.552C17.2061 8.688 17.8781 8.016 18.7261 7.536C19.5741 7.04 20.5341 6.792 21.6061 6.792C22.8061 6.792 23.8221 7.032 24.6541 7.512C25.4861 7.992 26.1181 8.656 26.5501 9.504C26.9821 10.352 27.1981 11.344 27.1981 12.48C27.1981 13.584 26.9661 14.576 26.5021 15.456C26.0381 16.32 25.3821 17 24.5341 17.496C23.7021 17.976 22.7181 18.216 21.5821 18.216ZM21.8221 16.944C22.7181 16.944 23.3821 16.568 23.8141 15.816C24.2461 15.048 24.4621 14.056 24.4621 12.84C24.4621 11.848 24.3181 10.992 24.0301 10.272C23.7581 9.536 23.3821 8.984 22.9021 8.616C22.4381 8.232 21.9261 8.04 21.3661 8.04C20.4861 8.04 19.8301 8.408 19.3981 9.144C18.9661 9.88 18.7501 10.824 18.7501 11.976C18.7501 13 18.8701 13.888 19.1101 14.64C19.3661 15.392 19.7261 15.968 20.1901 16.368C20.6541 16.752 21.1981 16.944 21.8221 16.944ZM38.2368 16.272C37.8048 16.912 37.2608 17.4 36.6048 17.736C35.9488 18.056 35.1648 18.216 34.2528 18.216C33.3568 18.216 32.5168 18.008 31.7328 17.592C30.9488 17.16 30.3008 16.528 29.7888 15.696C29.2928 14.848 29.0448 13.8 29.0448 12.552C29.0448 11.592 29.2448 10.672 29.6448 9.792C30.0448 8.912 30.6288 8.192 31.3968 7.632C32.1648 7.072 33.1008 6.792 34.2048 6.792C34.9888 6.792 35.6928 6.88 36.3168 7.056C36.9408 7.232 37.4848 7.496 37.9488 7.848C37.8848 8.312 37.8368 8.776 37.8048 9.24C37.7728 9.688 37.7568 10.16 37.7568 10.656C37.5968 10.736 37.3888 10.792 37.1328 10.824C36.8768 10.856 36.6448 10.872 36.4368 10.872C36.3568 9.944 36.1088 9.24 35.6928 8.76C35.2768 8.264 34.7328 8.016 34.0608 8.016C33.3248 8.016 32.7328 8.384 32.2848 9.12C31.8528 9.84 31.6368 10.864 31.6368 12.192C31.6368 12.96 31.7648 13.696 32.0208 14.4C32.2768 15.088 32.6528 15.648 33.1488 16.08C33.6608 16.512 34.2848 16.728 35.0208 16.728C35.5328 16.728 36.0128 16.616 36.4608 16.392C36.9088 16.168 37.3008 15.856 37.6368 15.456C37.7808 15.536 37.9008 15.648 37.9968 15.792C38.1088 15.936 38.1888 16.096 38.2368 16.272ZM39.3082 18.072C39.3082 17.88 39.3162 17.68 39.3322 17.472C39.3482 17.264 39.3802 17.08 39.4282 16.92C40.0682 16.904 40.5002 16.752 40.7242 16.464C40.9642 16.176 41.0842 15.632 41.0842 14.832V4.344C41.0842 3.96 41.0442 3.648 40.9642 3.408C40.8842 3.152 40.7162 2.96 40.4602 2.832C40.2042 2.704 39.8122 2.64 39.2842 2.64C39.2842 2.448 39.3002 2.264 39.3322 2.088C39.3642 1.912 39.4202 1.752 39.5002 1.608C39.8362 1.608 40.2442 1.568 40.7242 1.488C41.2042 1.408 41.6522 1.304 42.0682 1.176C42.5002 1.048 42.8202 0.919999 43.0282 0.792C43.1882 0.855999 43.3242 0.967999 43.4362 1.128C43.5482 1.288 43.6042 1.528 43.6042 1.848V14.832C43.6042 15.616 43.7082 16.16 43.9162 16.464C44.1242 16.752 44.4762 16.904 44.9722 16.92C45.0202 17.08 45.0522 17.272 45.0682 17.496C45.0842 17.72 45.0922 17.912 45.0922 18.072C44.6922 18.04 44.2442 18.016 43.7482 18C43.2522 18 42.7482 18 42.2362 18C41.9002 18 41.5482 18 41.1802 18C40.8282 18.016 40.4922 18.024 40.1722 18.024C39.8522 18.04 39.5642 18.056 39.3082 18.072ZM48.0922 18.216C47.8362 17.816 47.5162 17.36 47.1322 16.848C46.7482 16.336 46.3322 15.808 45.8842 15.264C45.4362 14.704 44.9802 14.16 44.5162 13.632C44.0522 13.104 43.6122 12.632 43.1962 12.216L45.3562 10.248C45.8682 9.784 46.2282 9.408 46.4362 9.12C46.6602 8.832 46.7722 8.616 46.7722 8.472C46.7722 8.344 46.7162 8.248 46.6042 8.184C46.4922 8.12 46.3242 8.088 46.1002 8.088C46.0362 7.896 45.9882 7.712 45.9562 7.536C45.9402 7.344 45.9322 7.152 45.9322 6.96C46.2522 6.976 46.5722 6.992 46.8922 7.008C47.2122 7.008 47.5242 7.008 47.8282 7.008C48.1322 7.008 48.4122 7.008 48.6682 7.008C48.9722 7.008 49.3162 7.008 49.7002 7.008C50.1002 6.992 50.5082 6.976 50.9242 6.96C50.9242 7.152 50.9082 7.352 50.8762 7.56C50.8602 7.752 50.8122 7.928 50.7322 8.088C50.4122 8.104 50.1002 8.16 49.7962 8.256C49.4922 8.352 49.1802 8.504 48.8602 8.712C48.5402 8.904 48.1802 9.184 47.7802 9.552L45.3082 11.808L45.2122 10.92C45.8202 11.528 46.4282 12.176 47.0362 12.864C47.6602 13.552 48.3802 14.4 49.1962 15.408C49.4842 15.776 49.7402 16.056 49.9642 16.248C50.1882 16.44 50.4202 16.584 50.6602 16.68C50.9002 16.76 51.1962 16.816 51.5482 16.848C51.5482 17.088 51.5322 17.304 51.5002 17.496C51.4842 17.688 51.4522 17.856 51.4042 18C51.0042 18 50.6202 18.008 50.2522 18.024C49.8842 18.04 49.5162 18.056 49.1482 18.072C48.7962 18.104 48.4442 18.152 48.0922 18.216ZM57.8801 18.216C56.6801 18.216 55.6881 17.96 54.9041 17.448C54.1361 16.936 53.5521 16.248 53.1521 15.384C52.7681 14.52 52.5761 13.568 52.5761 12.528C52.5761 11.472 52.7841 10.512 53.2001 9.648C53.6161 8.784 54.2081 8.096 54.9761 7.584C55.7601 7.056 56.6801 6.792 57.7361 6.792C58.8081 6.792 59.6721 7.016 60.3281 7.464C60.9841 7.912 61.4721 8.512 61.7921 9.264C62.1281 10.016 62.3201 10.864 62.3681 11.808C62.3041 12.176 62.1681 12.48 61.9601 12.72C61.6401 12.72 61.2001 12.72 60.6401 12.72C60.0961 12.72 59.4801 12.728 58.7921 12.744C58.1201 12.744 57.4241 12.76 56.7041 12.792C56.0001 12.808 55.3361 12.832 54.7121 12.864V11.544H59.6561C59.6561 10.488 59.4721 9.64 59.1041 9C58.7521 8.36 58.2401 8.04 57.5681 8.04C57.1841 8.04 56.8161 8.16 56.4641 8.4C56.1121 8.64 55.8241 9.048 55.6001 9.624C55.3761 10.184 55.2641 10.968 55.2641 11.976C55.2641 12.776 55.3681 13.544 55.5761 14.28C55.7841 15 56.1361 15.592 56.6321 16.056C57.1281 16.504 57.8321 16.728 58.7441 16.728C59.2721 16.728 59.7921 16.616 60.3041 16.392C60.8321 16.168 61.2961 15.848 61.6961 15.432C61.8241 15.496 61.9441 15.616 62.0561 15.792C62.1841 15.968 62.2561 16.136 62.2721 16.296C61.7121 16.984 61.0641 17.48 60.3281 17.784C59.6081 18.072 58.7921 18.216 57.8801 18.216ZM68.4245 18.216C67.4325 18.216 66.6885 17.96 66.1925 17.448C65.7125 16.936 65.4725 16.096 65.4725 14.928V8.736C65.2325 8.656 64.9765 8.592 64.7045 8.544C64.4485 8.48 64.1285 8.44 63.7445 8.424C63.7445 8.2 63.7605 8 63.7925 7.824C63.8245 7.648 63.8805 7.456 63.9605 7.248H65.4725V4.152C65.8565 4.072 66.2325 3.936 66.6005 3.744C66.9845 3.552 67.3045 3.344 67.5605 3.12C67.7365 3.184 67.8565 3.288 67.9205 3.432C67.9845 3.576 68.0165 3.912 68.0165 4.44V7.248H71.0885C71.0885 7.44 71.0725 7.64 71.0405 7.848C71.0085 8.056 70.9525 8.256 70.8725 8.448C70.2965 8.448 69.7685 8.48 69.2885 8.544C68.8245 8.608 68.4005 8.68 68.0165 8.76V14.448C68.0165 15.008 68.0645 15.464 68.1605 15.816C68.2725 16.152 68.4245 16.4 68.6165 16.56C68.8245 16.72 69.0725 16.8 69.3605 16.8C69.6805 16.8 69.9605 16.76 70.2005 16.68C70.4565 16.584 70.6965 16.448 70.9205 16.272C71.1285 16.528 71.2485 16.832 71.2805 17.184C71.0085 17.472 70.6005 17.72 70.0565 17.928C69.5125 18.12 68.9685 18.216 68.4245 18.216ZM77.9426 18.216C76.7426 18.216 75.7506 17.96 74.9666 17.448C74.1986 16.936 73.6146 16.248 73.2146 15.384C72.8306 14.52 72.6386 13.568 72.6386 12.528C72.6386 11.472 72.8466 10.512 73.2626 9.648C73.6786 8.784 74.2706 8.096 75.0386 7.584C75.8226 7.056 76.7426 6.792 77.7986 6.792C78.8706 6.792 79.7346 7.016 80.3906 7.464C81.0466 7.912 81.5346 8.512 81.8546 9.264C82.1906 10.016 82.3826 10.864 82.4306 11.808C82.3666 12.176 82.2306 12.48 82.0226 12.72C81.7026 12.72 81.2626 12.72 80.7026 12.72C80.1586 12.72 79.5426 12.728 78.8546 12.744C78.1826 12.744 77.4866 12.76 76.7666 12.792C76.0626 12.808 75.3986 12.832 74.7746 12.864V11.544H79.7186C79.7186 10.488 79.5346 9.64 79.1666 9C78.8146 8.36 78.3026 8.04 77.6306 8.04C77.2466 8.04 76.8786 8.16 76.5266 8.4C76.1746 8.64 75.8866 9.048 75.6626 9.624C75.4386 10.184 75.3266 10.968 75.3266 11.976C75.3266 12.776 75.4306 13.544 75.6386 14.28C75.8466 15 76.1986 15.592 76.6946 16.056C77.1906 16.504 77.8946 16.728 78.8066 16.728C79.3346 16.728 79.8546 16.616 80.3666 16.392C80.8946 16.168 81.3586 15.848 81.7586 15.432C81.8866 15.496 82.0066 15.616 82.1186 15.792C82.2466 15.968 82.3186 16.136 82.3346 16.296C81.7746 16.984 81.1266 17.48 80.3906 17.784C79.6706 18.072 78.8546 18.216 77.9426 18.216ZM89.591 18.216C88.391 18.216 87.399 17.96 86.615 17.448C85.847 16.936 85.263 16.248 84.863 15.384C84.479 14.52 84.287 13.568 84.287 12.528C84.287 11.472 84.495 10.512 84.911 9.648C85.327 8.784 85.919 8.096 86.687 7.584C87.471 7.056 88.391 6.792 89.447 6.792C90.519 6.792 91.383 7.016 92.039 7.464C92.695 7.912 93.183 8.512 93.503 9.264C93.839 10.016 94.031 10.864 94.079 11.808C94.015 12.176 93.879 12.48 93.671 12.72C93.351 12.72 92.911 12.72 92.351 12.72C91.807 12.72 91.191 12.728 90.503 12.744C89.831 12.744 89.135 12.76 88.415 12.792C87.711 12.808 87.047 12.832 86.423 12.864V11.544H91.367C91.367 10.488 91.183 9.64 90.815 9C90.463 8.36 89.951 8.04 89.279 8.04C88.895 8.04 88.527 8.16 88.175 8.4C87.823 8.64 87.535 9.048 87.311 9.624C87.087 10.184 86.975 10.968 86.975 11.976C86.975 12.776 87.079 13.544 87.287 14.28C87.495 15 87.847 15.592 88.343 16.056C88.839 16.504 89.543 16.728 90.455 16.728C90.983 16.728 91.503 16.616 92.015 16.392C92.543 16.168 93.007 15.848 93.407 15.432C93.535 15.496 93.655 15.616 93.767 15.792C93.895 15.968 93.967 16.136 93.983 16.296C93.423 16.984 92.775 17.48 92.039 17.784C91.319 18.072 90.503 18.216 89.591 18.216ZM100.207 14.28C100.207 14.968 100.279 15.496 100.423 15.864C100.567 16.232 100.799 16.488 101.119 16.632C101.455 16.776 101.887 16.872 102.415 16.92C102.463 17.064 102.495 17.232 102.511 17.424C102.543 17.616 102.559 17.832 102.559 18.072C102.303 18.056 101.999 18.04 101.647 18.024C101.295 18.024 100.919 18.016 100.519 18C100.119 18 99.7194 18 99.3194 18C98.7114 18 98.0794 18 97.4234 18C96.7674 18.016 96.2554 18.04 95.8874 18.072C95.8874 17.816 95.8954 17.592 95.9114 17.4C95.9274 17.208 95.9674 17.048 96.0314 16.92C96.4634 16.888 96.7914 16.808 97.0154 16.68C97.2554 16.552 97.4234 16.336 97.5194 16.032C97.6154 15.728 97.6634 15.296 97.6634 14.736V12.552H100.207V14.28ZM100.207 10.968V12.912H97.6634V10.248L100.207 7.92C100.207 8.416 100.159 8.88 100.063 9.312C99.9674 9.744 99.8714 10.192 99.7754 10.656L100.207 10.968ZM99.6794 10.8C99.8394 10.368 99.9674 10 100.063 9.696C100.175 9.376 100.287 9.12 100.399 8.928C100.751 8.368 101.167 7.904 101.647 7.536C102.143 7.168 102.711 6.984 103.351 6.984C103.959 6.984 104.511 7.176 105.007 7.56C104.975 7.832 104.943 8.152 104.911 8.52C104.879 8.872 104.855 9.232 104.839 9.6C104.839 9.952 104.839 10.28 104.839 10.584C104.663 10.648 104.431 10.704 104.143 10.752C103.855 10.8 103.567 10.824 103.279 10.824C103.247 10.104 103.127 9.624 102.919 9.384C102.727 9.128 102.471 9 102.151 9C101.895 9 101.607 9.152 101.287 9.456C100.983 9.76 100.727 10.16 100.519 10.656C100.311 11.152 100.207 11.696 100.207 12.288L99.6794 10.8ZM97.6634 12.912V10.416C97.6634 10 97.6234 9.672 97.5434 9.432C97.4794 9.176 97.3194 8.984 97.0634 8.856C96.8074 8.728 96.4154 8.656 95.8874 8.64C95.8874 8.448 95.9034 8.264 95.9354 8.088C95.9674 7.912 96.0234 7.752 96.1034 7.608C96.7114 7.576 97.3594 7.48 98.0474 7.32C98.7354 7.16 99.2634 6.984 99.6314 6.792C99.7914 6.856 99.9274 6.968 100.039 7.128C100.151 7.288 100.207 7.552 100.207 7.92L97.6634 12.912Z" fill="#F2F2F2"/>
</svg>
