<svg width="32" height="32" viewBox="0 0 32 32" fill="none" xmlns="http://www.w3.org/2000/svg">
<path d="M31.1911 3.04761L31.69 3.01453C31.6767 2.81396 31.5446 2.64085 31.3547 2.57511C31.1647 2.50936 30.9538 2.56376 30.8194 2.7132L31.1911 3.04761ZM29.5176 9.48876C29.5176 9.21262 29.2937 8.98876 29.0176 8.98876C28.7415 8.98876 28.5176 9.21262 28.5176 9.48876H29.0176H29.5176ZM16.0001 11.4286V11.9286H16.5001V11.4286H16.0001ZM2.93547 3.04761L3.40373 2.87228C3.33396 2.68595 3.16035 2.55871 2.96165 2.54829C2.76296 2.53788 2.57699 2.64626 2.48812 2.82428L2.93547 3.04761ZM11.4286 22.8571L11.7825 23.2104C11.9048 23.0879 11.9551 22.9107 11.9152 22.7422C11.8754 22.5736 11.7512 22.4377 11.587 22.3829L11.4286 22.8571ZM0.761963 26.9932V26.4932C0.541695 26.4932 0.347374 26.6373 0.283469 26.8481C0.219563 27.0589 0.30113 27.2867 0.484316 27.409L0.761963 26.9932ZM27.3547 5.16653L26.9839 5.50187L27.164 5.70112L27.4296 5.66089L27.3547 5.16653ZM31.1911 3.04761L30.6922 3.08068C30.8064 4.80343 30.7077 5.92571 30.3936 6.81126C30.0831 7.68636 29.5444 8.38089 28.6717 9.21721L29.0176 9.57822L29.3635 9.93923C30.2868 9.0545 30.9508 8.23159 31.336 7.14559C31.7176 6.07003 31.8076 4.78753 31.69 3.01453L31.1911 3.04761ZM29.0176 11.0748H29.5176V9.57822H29.0176H28.5176V11.0748H29.0176ZM29.0176 9.57822H29.5176V9.48876H29.0176H28.5176V9.57822H29.0176ZM16.0001 9.90475H15.5001V11.4286H16.0001H16.5001V9.90475H16.0001ZM22.5864 3.04761V2.54761C18.6343 2.54761 15.5001 5.99859 15.5001 9.90475H16.0001H16.5001C16.5001 6.49858 19.2375 3.54761 22.5864 3.54761V3.04761ZM29.0176 11.0748H28.5176C28.5176 20.8023 20.3591 29.2143 10.6667 29.2143V29.7143V30.2143C20.9309 30.2143 29.5176 21.3348 29.5176 11.0748H29.0176ZM2.93547 3.04761L2.46722 3.22293C3.60573 6.26364 7.91195 11.9286 16.0001 11.9286V11.4286V10.9286C8.43889 10.9286 4.43873 5.63656 3.40373 2.87228L2.93547 3.04761ZM2.93547 3.04761L2.48812 2.82428C0.267512 7.27236 -0.0910979 11.5631 1.42278 15.186C2.93666 18.8088 6.28223 21.6661 11.2703 23.3314L11.4286 22.8571L11.587 22.3829C6.79423 20.7828 3.71971 18.0891 2.34546 14.8004C0.971201 11.5117 1.25641 7.53033 3.38283 3.27094L2.93547 3.04761ZM11.4286 22.8571L11.0748 22.5039C9.697 23.8838 5.81676 26.4932 0.761963 26.4932V26.9932V27.4932C6.14002 27.4932 10.2623 24.733 11.7825 23.2104L11.4286 22.8571ZM27.3547 5.16653L27.7256 4.83119C26.4582 3.42946 24.6248 2.54761 22.5864 2.54761V3.04761V3.54761C24.3302 3.54761 25.8978 4.30077 26.9839 5.50187L27.3547 5.16653ZM27.3547 5.16653L27.4296 5.66089C28.9452 5.43135 30.4386 4.63167 31.5628 3.38201L31.1911 3.04761L30.8194 2.7132C29.844 3.79747 28.5577 4.47864 27.2799 4.67217L27.3547 5.16653ZM0.761963 26.9932L0.484316 27.409C3.85283 29.6582 7.09254 30.2143 10.6667 30.2143V29.7143V29.2143C7.21655 29.2143 4.19162 28.682 1.03961 26.5774L0.761963 26.9932Z" fill="#F2F2F2"/>
</svg>
